<mxfile host="app.diagrams.net" modified="2023-12-24T12:42:25.885Z" agent="5.0 (Windows NT 10.0; Win64; x64) AppleWebKit/537.36 (KHTML, like Gecko) Chrome/120.0.0.0 Safari/537.36" etag="AHZdn3ZDs7BDJx5Fn1gv" version="21.0.6" type="github">
  <diagram name="第 1 页" id="d72gD2Qw_HFluuerfOsG">
    <mxGraphModel dx="1562" dy="853" grid="1" gridSize="10" guides="1" tooltips="1" connect="1" arrows="1" fold="1" page="1" pageScale="1" pageWidth="827" pageHeight="1169" math="0" shadow="0">
      <root>
        <mxCell id="0" />
        <mxCell id="1" parent="0" />
        <mxCell id="zl0m7Npeq5hjJVL28BQn-66" value="" style="group" vertex="1" connectable="0" parent="1">
          <mxGeometry x="70" y="250" width="725" height="600" as="geometry" />
        </mxCell>
        <mxCell id="zl0m7Npeq5hjJVL28BQn-28" value="" style="group;fontFamily=Times New Roman;fillColor=none;strokeWidth=1.5;fontStyle=0" vertex="1" connectable="0" parent="zl0m7Npeq5hjJVL28BQn-66">
          <mxGeometry width="719.1056910569107" height="600" as="geometry" />
        </mxCell>
        <mxCell id="zl0m7Npeq5hjJVL28BQn-1" value="版本号" style="rounded=0;whiteSpace=wrap;html=1;fontFamily=Times New Roman;strokeWidth=1.5;fontStyle=0" vertex="1" parent="zl0m7Npeq5hjJVL28BQn-28">
          <mxGeometry width="152.08772458094953" height="23.529411764705884" as="geometry" />
        </mxCell>
        <mxCell id="zl0m7Npeq5hjJVL28BQn-2" value="流量分类" style="rounded=0;whiteSpace=wrap;html=1;fontFamily=Times New Roman;strokeWidth=1.5;fontStyle=0" vertex="1" parent="zl0m7Npeq5hjJVL28BQn-28">
          <mxGeometry x="152.08772458094953" width="152.08772458094953" height="23.529411764705884" as="geometry" />
        </mxCell>
        <mxCell id="zl0m7Npeq5hjJVL28BQn-3" value="流标签" style="rounded=0;whiteSpace=wrap;html=1;fontFamily=Times New Roman;strokeWidth=1.5;fontStyle=0" vertex="1" parent="zl0m7Npeq5hjJVL28BQn-28">
          <mxGeometry x="304.17544916189905" width="344.1985345779384" height="23.529411764705884" as="geometry" />
        </mxCell>
        <mxCell id="zl0m7Npeq5hjJVL28BQn-4" value="有效负载长度" style="rounded=0;whiteSpace=wrap;html=1;fontFamily=Times New Roman;strokeWidth=1.5;fontStyle=0" vertex="1" parent="zl0m7Npeq5hjJVL28BQn-28">
          <mxGeometry y="23.529411764705884" width="344.1985345779384" height="23.529411764705884" as="geometry" />
        </mxCell>
        <mxCell id="zl0m7Npeq5hjJVL28BQn-5" value="Next=43" style="rounded=0;whiteSpace=wrap;html=1;fontFamily=Times New Roman;strokeWidth=1.5;fontStyle=0" vertex="1" parent="zl0m7Npeq5hjJVL28BQn-28">
          <mxGeometry x="344.1985345779384" y="23.529411764705884" width="152.08772458094953" height="23.529411764705884" as="geometry" />
        </mxCell>
        <mxCell id="zl0m7Npeq5hjJVL28BQn-6" value="跳数限制" style="rounded=0;whiteSpace=wrap;html=1;fontFamily=Times New Roman;strokeWidth=1.5;fontStyle=0" vertex="1" parent="zl0m7Npeq5hjJVL28BQn-28">
          <mxGeometry x="496.28625915888796" y="23.529411764705884" width="152.08772458094953" height="23.529411764705884" as="geometry" />
        </mxCell>
        <mxCell id="zl0m7Npeq5hjJVL28BQn-7" value="源地址" style="rounded=0;whiteSpace=wrap;html=1;fontFamily=Times New Roman;strokeWidth=1.5;fontStyle=0" vertex="1" parent="zl0m7Npeq5hjJVL28BQn-28">
          <mxGeometry y="47.05882352941177" width="648.3739837398375" height="105.88235294117646" as="geometry" />
        </mxCell>
        <mxCell id="zl0m7Npeq5hjJVL28BQn-8" value="前缀" style="rounded=0;whiteSpace=wrap;html=1;fontFamily=Times New Roman;strokeWidth=1.5;fontStyle=0" vertex="1" parent="zl0m7Npeq5hjJVL28BQn-28">
          <mxGeometry y="152.94117647058826" width="344.1985345779384" height="58.8235294117647" as="geometry" />
        </mxCell>
        <mxCell id="zl0m7Npeq5hjJVL28BQn-9" value="G-SID" style="rounded=0;whiteSpace=wrap;html=1;fontFamily=Times New Roman;strokeWidth=1.5;fontStyle=0" vertex="1" parent="zl0m7Npeq5hjJVL28BQn-28">
          <mxGeometry x="344.1985345779384" y="152.94117647058826" width="176.10157583057315" height="58.8235294117647" as="geometry" />
        </mxCell>
        <mxCell id="zl0m7Npeq5hjJVL28BQn-10" value="0" style="rounded=0;whiteSpace=wrap;html=1;fontFamily=Times New Roman;strokeWidth=1.5;fontStyle=0" vertex="1" parent="zl0m7Npeq5hjJVL28BQn-28">
          <mxGeometry x="520.3001104085116" y="152.94117647058826" width="96.05540499849445" height="58.8235294117647" as="geometry" />
        </mxCell>
        <mxCell id="zl0m7Npeq5hjJVL28BQn-11" value="SI" style="rounded=0;whiteSpace=wrap;html=1;fontFamily=Times New Roman;strokeWidth=1.5;fontStyle=0" vertex="1" parent="zl0m7Npeq5hjJVL28BQn-28">
          <mxGeometry x="616.355515407006" y="152.94117647058826" width="32.01846833283148" height="58.8235294117647" as="geometry" />
        </mxCell>
        <mxCell id="zl0m7Npeq5hjJVL28BQn-12" value="下一跳报文头部" style="rounded=0;whiteSpace=wrap;html=1;fontFamily=Times New Roman;strokeWidth=1.5;fontStyle=0" vertex="1" parent="zl0m7Npeq5hjJVL28BQn-28">
          <mxGeometry y="211.76470588235293" width="152.08772458094953" height="23.529411764705884" as="geometry" />
        </mxCell>
        <mxCell id="zl0m7Npeq5hjJVL28BQn-13" value="最后条目" style="rounded=0;whiteSpace=wrap;html=1;fontFamily=Times New Roman;strokeWidth=1.5;fontStyle=0" vertex="1" parent="zl0m7Npeq5hjJVL28BQn-28">
          <mxGeometry y="235.2941176470588" width="152.08772458094953" height="23.529411764705884" as="geometry" />
        </mxCell>
        <mxCell id="zl0m7Npeq5hjJVL28BQn-14" value="扩展头部长度" style="rounded=0;whiteSpace=wrap;html=1;fontFamily=Times New Roman;strokeWidth=1.5;fontStyle=0" vertex="1" parent="zl0m7Npeq5hjJVL28BQn-28">
          <mxGeometry x="152.08772458094953" y="211.76470588235293" width="152.08772458094953" height="23.529411764705884" as="geometry" />
        </mxCell>
        <mxCell id="zl0m7Npeq5hjJVL28BQn-15" value="路由类型" style="rounded=0;whiteSpace=wrap;html=1;fontFamily=Times New Roman;strokeWidth=1.5;fontStyle=0" vertex="1" parent="zl0m7Npeq5hjJVL28BQn-28">
          <mxGeometry x="304.17544916189905" y="211.76470588235293" width="176.10157583057315" height="23.529411764705884" as="geometry" />
        </mxCell>
        <mxCell id="zl0m7Npeq5hjJVL28BQn-16" value="剩余全段路由" style="rounded=0;whiteSpace=wrap;html=1;fontFamily=Times New Roman;strokeWidth=1.5;fontStyle=0" vertex="1" parent="zl0m7Npeq5hjJVL28BQn-28">
          <mxGeometry x="480.27702499247226" y="211.76470588235293" width="168.09695874736525" height="23.529411764705884" as="geometry" />
        </mxCell>
        <mxCell id="zl0m7Npeq5hjJVL28BQn-17" value="数据分组标识" style="rounded=0;whiteSpace=wrap;html=1;fontFamily=Times New Roman;strokeWidth=1.5;fontStyle=0" vertex="1" parent="zl0m7Npeq5hjJVL28BQn-28">
          <mxGeometry x="152.08772458094953" y="235.2941176470588" width="152.08772458094953" height="23.529411764705884" as="geometry" />
        </mxCell>
        <mxCell id="zl0m7Npeq5hjJVL28BQn-18" value="Tag" style="rounded=0;whiteSpace=wrap;html=1;fontFamily=Times New Roman;strokeWidth=1.5;fontStyle=0" vertex="1" parent="zl0m7Npeq5hjJVL28BQn-28">
          <mxGeometry x="304.17544916189905" y="235.2941176470588" width="344.1985345779384" height="23.529411764705884" as="geometry" />
        </mxCell>
        <mxCell id="zl0m7Npeq5hjJVL28BQn-19" value="128 bit SID" style="rounded=0;whiteSpace=wrap;html=1;fontFamily=Times New Roman;strokeWidth=1.5;fontStyle=0" vertex="1" parent="zl0m7Npeq5hjJVL28BQn-28">
          <mxGeometry y="258.82352941176475" width="648.3739837398375" height="105.88235294117646" as="geometry" />
        </mxCell>
        <mxCell id="zl0m7Npeq5hjJVL28BQn-20" value="padding" style="rounded=0;whiteSpace=wrap;html=1;fontFamily=Times New Roman;strokeWidth=1.5;fontStyle=0" vertex="1" parent="zl0m7Npeq5hjJVL28BQn-28">
          <mxGeometry y="364.7058823529412" width="648.3739837398375" height="29.41176470588235" as="geometry" />
        </mxCell>
        <mxCell id="zl0m7Npeq5hjJVL28BQn-21" value="G-SID0" style="rounded=0;whiteSpace=wrap;html=1;fontFamily=Times New Roman;strokeWidth=1.5;fontStyle=0" vertex="1" parent="zl0m7Npeq5hjJVL28BQn-28">
          <mxGeometry y="394.1176470588236" width="648.3739837398375" height="29.41176470588235" as="geometry" />
        </mxCell>
        <mxCell id="zl0m7Npeq5hjJVL28BQn-22" value="G-SID1(COC flavor)" style="rounded=0;whiteSpace=wrap;html=1;fontFamily=Times New Roman;strokeWidth=1.5;fontStyle=0" vertex="1" parent="zl0m7Npeq5hjJVL28BQn-28">
          <mxGeometry y="423.52941176470586" width="648.3739837398375" height="29.41176470588235" as="geometry" />
        </mxCell>
        <mxCell id="zl0m7Npeq5hjJVL28BQn-23" value="G-SID2(COC flavor)" style="rounded=0;whiteSpace=wrap;html=1;fontFamily=Times New Roman;strokeWidth=1.5;fontStyle=0" vertex="1" parent="zl0m7Npeq5hjJVL28BQn-28">
          <mxGeometry y="452.94117647058823" width="648.3739837398375" height="29.41176470588235" as="geometry" />
        </mxCell>
        <mxCell id="zl0m7Npeq5hjJVL28BQn-24" value="G-SID0(COC flavor)" style="rounded=0;whiteSpace=wrap;html=1;fontFamily=Times New Roman;strokeWidth=1.5;fontStyle=0" vertex="1" parent="zl0m7Npeq5hjJVL28BQn-28">
          <mxGeometry y="482.3529411764706" width="648.3739837398375" height="29.41176470588235" as="geometry" />
        </mxCell>
        <mxCell id="zl0m7Npeq5hjJVL28BQn-25" value="G-SID1(COC flavor)" style="rounded=0;whiteSpace=wrap;html=1;fontFamily=Times New Roman;strokeWidth=1.5;fontStyle=0" vertex="1" parent="zl0m7Npeq5hjJVL28BQn-28">
          <mxGeometry y="511.7647058823529" width="648.3739837398375" height="29.41176470588235" as="geometry" />
        </mxCell>
        <mxCell id="zl0m7Npeq5hjJVL28BQn-26" value="G-SID2(COC flavor)" style="rounded=0;whiteSpace=wrap;html=1;fontFamily=Times New Roman;strokeWidth=1.5;fontStyle=0" vertex="1" parent="zl0m7Npeq5hjJVL28BQn-28">
          <mxGeometry y="541.1764705882354" width="648.3739837398375" height="29.41176470588235" as="geometry" />
        </mxCell>
        <mxCell id="zl0m7Npeq5hjJVL28BQn-27" value="G-SID3(COC flavor)" style="rounded=0;whiteSpace=wrap;html=1;fontFamily=Times New Roman;strokeWidth=1.5;fontStyle=0" vertex="1" parent="zl0m7Npeq5hjJVL28BQn-28">
          <mxGeometry y="570.5882352941177" width="648.3739837398375" height="29.41176470588235" as="geometry" />
        </mxCell>
        <mxCell id="zl0m7Npeq5hjJVL28BQn-32" value="" style="curved=1;endArrow=classic;html=1;rounded=0;entryX=0.75;entryY=1;entryDx=0;entryDy=0;strokeWidth=1.5;fontStyle=0;fontFamily=Times New Roman;" edge="1" parent="zl0m7Npeq5hjJVL28BQn-28">
          <mxGeometry width="50" height="50" relative="1" as="geometry">
            <mxPoint x="554.0650406504066" y="436.3636363636364" as="sourcePoint" />
            <mxPoint x="476.2747164508684" y="198.5179526355997" as="targetPoint" />
            <Array as="points">
              <mxPoint x="617.5349593495937" y="433.24675324675326" />
              <mxPoint x="602.3983739837399" y="285.1948051948052" />
            </Array>
          </mxGeometry>
        </mxCell>
        <mxCell id="zl0m7Npeq5hjJVL28BQn-33" value="32位拷贝" style="rounded=0;whiteSpace=wrap;html=1;strokeColor=none;fillColor=none;strokeWidth=1.5;fontStyle=0;fontFamily=Times New Roman;" vertex="1" parent="zl0m7Npeq5hjJVL28BQn-28">
          <mxGeometry x="572.9268292682926" y="296.1038961038961" width="94.30894308943091" height="15.584415584415584" as="geometry" />
        </mxCell>
        <mxCell id="zl0m7Npeq5hjJVL28BQn-65" value="SL" style="rounded=0;whiteSpace=wrap;html=1;strokeColor=none;fillColor=none;strokeWidth=1.5;fontStyle=0;fontFamily=Times New Roman;" vertex="1" parent="zl0m7Npeq5hjJVL28BQn-28">
          <mxGeometry x="653.0894308943091" y="475.32467532467535" width="70.73170731707319" height="15.584415584415584" as="geometry" />
        </mxCell>
        <mxCell id="zl0m7Npeq5hjJVL28BQn-64" value="SI" style="rounded=0;whiteSpace=wrap;html=1;strokeColor=none;fillColor=none;strokeWidth=1.5;fontStyle=0;fontFamily=Times New Roman;" vertex="1" parent="zl0m7Npeq5hjJVL28BQn-66">
          <mxGeometry x="654.2682926829269" y="401.2987012987013" width="70.73170731707317" height="15.584415584415584" as="geometry" />
        </mxCell>
        <mxCell id="zl0m7Npeq5hjJVL28BQn-29" value="" style="triangle;whiteSpace=wrap;html=1;rotation=-180;strokeWidth=1.5;fontStyle=0;fontFamily=Times New Roman;" vertex="1" parent="zl0m7Npeq5hjJVL28BQn-66">
          <mxGeometry x="653.089430894309" y="397.4025974025974" width="23.577235772357724" height="23.376623376623378" as="geometry" />
        </mxCell>
        <mxCell id="zl0m7Npeq5hjJVL28BQn-30" value="" style="triangle;whiteSpace=wrap;html=1;rotation=-180;strokeWidth=1.5;fontStyle=0;fontFamily=Times New Roman;" vertex="1" parent="zl0m7Npeq5hjJVL28BQn-66">
          <mxGeometry x="651.910569105691" y="470.64935064935065" width="23.577235772357724" height="23.376623376623378" as="geometry" />
        </mxCell>
      </root>
    </mxGraphModel>
  </diagram>
</mxfile>
